<svg width="25" height="30" viewBox="0 0 25 30" fill="none" xmlns="http://www.w3.org/2000/svg">
<g clip-path="url(#clip0_68_942)">
<path d="M12.3811 30C16.9624 30 20.6586 26.2235 20.6586 21.5559C20.6586 16.8751 16.9624 13.0984 12.3811 13.0984C7.81281 13.0984 4.11655 16.8751 4.11655 21.5559C4.11655 26.2235 7.81281 30 12.3811 30ZM4.45495 15.226C5.73041 13.5772 7.48743 12.3272 9.50475 11.7155L3.60897 0.890965L0.186032 6.22342C-0.0482371 6.56917 -0.0612519 6.95481 0.146987 7.30056L4.45495 15.226ZM9.4657 7.18088H15.3094L19.279 5.19449e-06H5.49614L9.4657 7.18088ZM15.2704 11.7155C17.3007 12.3272 19.0447 13.5772 20.3202 15.226L24.6412 7.30056C24.8364 6.95481 24.8233 6.56917 24.589 6.22342L21.1662 0.890965L15.2704 11.7155Z" fill="#CD7F32"/>
<path d="M10.352 20.336C10.3947 20.0453 10.476 19.792 10.596 19.576C10.7187 19.36 10.8693 19.18 11.048 19.036C11.2293 18.892 11.436 18.7853 11.668 18.716C11.9 18.644 12.1493 18.608 12.416 18.608C12.704 18.608 12.96 18.6493 13.184 18.732C13.408 18.812 13.5973 18.9213 13.752 19.06C13.9067 19.1987 14.024 19.36 14.104 19.544C14.184 19.7253 14.224 19.9173 14.224 20.12C14.224 20.304 14.2053 20.4667 14.168 20.608C14.1307 20.7467 14.0747 20.868 14 20.972C13.928 21.0733 13.8373 21.16 13.728 21.232C13.6213 21.3013 13.4987 21.36 13.36 21.408C14.0053 21.6347 14.328 22.0747 14.328 22.728C14.328 23.0373 14.272 23.3067 14.16 23.536C14.048 23.7653 13.8973 23.956 13.708 24.108C13.5213 24.26 13.304 24.3747 13.056 24.452C12.808 24.5267 12.5493 24.564 12.28 24.564C12.0027 24.564 11.756 24.5347 11.54 24.476C11.324 24.4147 11.132 24.3213 10.964 24.196C10.796 24.068 10.648 23.9053 10.52 23.708C10.3947 23.5107 10.2853 23.276 10.192 23.004L10.744 22.78C10.888 22.724 11.0213 22.7093 11.144 22.736C11.2667 22.7627 11.3547 22.824 11.408 22.92C11.528 23.1413 11.6547 23.3027 11.788 23.404C11.924 23.5027 12.0827 23.552 12.264 23.552C12.4027 23.552 12.5227 23.5293 12.624 23.484C12.728 23.436 12.8133 23.376 12.88 23.304C12.9493 23.2293 13.0013 23.1453 13.036 23.052C13.0707 22.9587 13.088 22.864 13.088 22.768C13.088 22.6427 13.0787 22.5307 13.06 22.432C13.044 22.3307 12.996 22.244 12.916 22.172C12.836 22.1 12.7147 22.0453 12.552 22.008C12.392 21.968 12.168 21.948 11.88 21.948V21.092C12.1227 21.092 12.3187 21.0733 12.468 21.036C12.6173 20.9987 12.732 20.948 12.812 20.884C12.8947 20.8173 12.9493 20.7373 12.976 20.644C13.0027 20.5507 13.016 20.448 13.016 20.336C13.016 20.1067 12.96 19.9307 12.848 19.808C12.7387 19.6827 12.5707 19.62 12.344 19.62C12.16 19.62 12.004 19.6693 11.876 19.768C11.7507 19.864 11.664 19.984 11.616 20.128C11.56 20.2747 11.4867 20.372 11.396 20.42C11.3053 20.468 11.176 20.4787 11.008 20.452L10.352 20.336Z" fill="white"/>
</g>
<defs>
<clipPath id="clip0_68_942">
<rect width="24.78" height="30" fill="white"/>
</clipPath>
</defs>
</svg>
