<svg width="38" height="38" viewBox="0 0 38 38" fill="none" xmlns="http://www.w3.org/2000/svg">
<g filter="url(#filter0_i_44_1346)">
<g filter="url(#filter1_d_44_1346)">
<rect x="4" width="30" height="30" rx="15" fill="#57BB85"/>
<g clip-path="url(#clip0_44_1346)">
<path d="M17.0611 22.5C17.4265 22.5 17.7155 22.3386 17.9194 22.0241L25.9506 9.37819C26.1036 9.13173 26.1631 8.94476 26.1631 8.7493C26.1631 8.28187 25.8571 7.97592 25.3897 7.97592C25.0498 7.97592 24.8628 8.0864 24.6589 8.40935L17.0271 20.5708L13.0667 15.3867C12.8543 15.0892 12.6418 14.9703 12.3359 14.9703C11.8514 14.9703 11.52 15.3017 11.52 15.7691C11.52 15.9646 11.605 16.1856 11.7664 16.3895L16.1772 22.0071C16.4322 22.3386 16.6956 22.5 17.0611 22.5Z" fill="white" fill-opacity="0.85"/>
</g>
</g>
</g>
<defs>
<filter id="filter0_i_44_1346" x="4" y="0" width="30" height="34" filterUnits="userSpaceOnUse" color-interpolation-filters="sRGB">
<feFlood flood-opacity="0" result="BackgroundImageFix"/>
<feBlend mode="normal" in="SourceGraphic" in2="BackgroundImageFix" result="shape"/>
<feColorMatrix in="SourceAlpha" type="matrix" values="0 0 0 0 0 0 0 0 0 0 0 0 0 0 0 0 0 0 127 0" result="hardAlpha"/>
<feOffset dy="4"/>
<feGaussianBlur stdDeviation="2"/>
<feComposite in2="hardAlpha" operator="arithmetic" k2="-1" k3="1"/>
<feColorMatrix type="matrix" values="0 0 0 0 0 0 0 0 0 0 0 0 0 0 0 0 0 0 0.25 0"/>
<feBlend mode="normal" in2="shape" result="effect1_innerShadow_44_1346"/>
</filter>
<filter id="filter1_d_44_1346" x="0" y="0" width="38" height="38" filterUnits="userSpaceOnUse" color-interpolation-filters="sRGB">
<feFlood flood-opacity="0" result="BackgroundImageFix"/>
<feColorMatrix in="SourceAlpha" type="matrix" values="0 0 0 0 0 0 0 0 0 0 0 0 0 0 0 0 0 0 127 0" result="hardAlpha"/>
<feOffset dy="4"/>
<feGaussianBlur stdDeviation="2"/>
<feComposite in2="hardAlpha" operator="out"/>
<feColorMatrix type="matrix" values="0 0 0 0 0 0 0 0 0 0 0 0 0 0 0 0 0 0 0.1 0"/>
<feBlend mode="normal" in2="BackgroundImageFix" result="effect1_dropShadow_44_1346"/>
<feBlend mode="normal" in="SourceGraphic" in2="effect1_dropShadow_44_1346" result="shape"/>
</filter>
<clipPath id="clip0_44_1346">
<rect width="14.9575" height="15" fill="white" transform="translate(11.52 7.5)"/>
</clipPath>
</defs>
</svg>
