<svg width="38" height="38" viewBox="0 0 38 38" fill="none" xmlns="http://www.w3.org/2000/svg">
<g filter="url(#filter0_i_44_1352)">
<g filter="url(#filter1_d_44_1352)">
<rect x="4" width="30" height="30" rx="15" fill="#E9573F"/>
<g clip-path="url(#clip0_44_1352)">
<path d="M12.562 21.288C12.8488 21.5666 13.3239 21.5666 13.6025 21.288L18.8459 16.0446L24.0893 21.288C24.3679 21.5666 24.8513 21.5747 25.1299 21.288C25.4084 21.0012 25.4084 20.5343 25.1299 20.2558L19.8864 15.0041L25.1299 9.76069C25.4084 9.48213 25.4166 9.00694 25.1299 8.72839C24.8431 8.44164 24.3679 8.44164 24.0893 8.72839L18.8459 13.9718L13.6025 8.72839C13.3239 8.44164 12.8406 8.43344 12.562 8.72839C12.2835 9.01514 12.2835 9.48213 12.562 9.76069L17.8054 15.0041L12.562 20.2558C12.2835 20.5343 12.2753 21.0095 12.562 21.288Z" fill="white" fill-opacity="0.85"/>
</g>
</g>
</g>
<defs>
<filter id="filter0_i_44_1352" x="4" y="0" width="30" height="34" filterUnits="userSpaceOnUse" color-interpolation-filters="sRGB">
<feFlood flood-opacity="0" result="BackgroundImageFix"/>
<feBlend mode="normal" in="SourceGraphic" in2="BackgroundImageFix" result="shape"/>
<feColorMatrix in="SourceAlpha" type="matrix" values="0 0 0 0 0 0 0 0 0 0 0 0 0 0 0 0 0 0 127 0" result="hardAlpha"/>
<feOffset dy="4"/>
<feGaussianBlur stdDeviation="2"/>
<feComposite in2="hardAlpha" operator="arithmetic" k2="-1" k3="1"/>
<feColorMatrix type="matrix" values="0 0 0 0 0 0 0 0 0 0 0 0 0 0 0 0 0 0 0.25 0"/>
<feBlend mode="normal" in2="shape" result="effect1_innerShadow_44_1352"/>
</filter>
<filter id="filter1_d_44_1352" x="0" y="0" width="38" height="38" filterUnits="userSpaceOnUse" color-interpolation-filters="sRGB">
<feFlood flood-opacity="0" result="BackgroundImageFix"/>
<feColorMatrix in="SourceAlpha" type="matrix" values="0 0 0 0 0 0 0 0 0 0 0 0 0 0 0 0 0 0 127 0" result="hardAlpha"/>
<feOffset dy="4"/>
<feGaussianBlur stdDeviation="2"/>
<feComposite in2="hardAlpha" operator="out"/>
<feColorMatrix type="matrix" values="0 0 0 0 0 0 0 0 0 0 0 0 0 0 0 0 0 0 0.1 0"/>
<feBlend mode="normal" in2="BackgroundImageFix" result="effect1_dropShadow_44_1352"/>
<feBlend mode="normal" in="SourceGraphic" in2="effect1_dropShadow_44_1352" result="shape"/>
</filter>
<clipPath id="clip0_44_1352">
<rect width="13.295" height="13" fill="white" transform="translate(12.35 8.5)"/>
</clipPath>
</defs>
</svg>
