<svg width="25" height="30" viewBox="0 0 25 30" fill="none" xmlns="http://www.w3.org/2000/svg">
<g clip-path="url(#clip0_68_938)">
<path d="M12.3811 30C16.9624 30 20.6586 26.2235 20.6586 21.5559C20.6586 16.8751 16.9624 13.0984 12.3811 13.0984C7.81281 13.0984 4.11655 16.8751 4.11655 21.5559C4.11655 26.2235 7.81281 30 12.3811 30ZM4.45495 15.226C5.73041 13.5772 7.48743 12.3272 9.50475 11.7155L3.60897 0.890965L0.186032 6.22342C-0.0482371 6.56917 -0.0612519 6.95481 0.146987 7.30056L4.45495 15.226ZM9.4657 7.18088H15.3094L19.279 5.19449e-06H5.49614L9.4657 7.18088ZM15.2704 11.7155C17.3007 12.3272 19.0447 13.5772 20.3202 15.226L24.6412 7.30056C24.8364 6.95481 24.8233 6.56917 24.589 6.22342L21.1662 0.890965L15.2704 11.7155Z" fill="#FFD700"/>
<path d="M14.204 23.604V24.5H10.884V23.604H12.004V20.664C12.004 20.5893 12.0053 20.5147 12.008 20.44C12.0107 20.3627 12.0147 20.2853 12.02 20.208L11.356 20.76C11.2973 20.8053 11.2387 20.8333 11.18 20.844C11.124 20.852 11.0707 20.852 11.02 20.844C10.9693 20.8333 10.924 20.816 10.884 20.792C10.844 20.7653 10.8147 20.7387 10.796 20.712L10.404 20.192L12.22 18.668H13.244V23.604H14.204Z" fill="white"/>
</g>
<defs>
<clipPath id="clip0_68_938">
<rect width="24.78" height="30" fill="white"/>
</clipPath>
</defs>
</svg>
