<svg width="18" height="16" viewBox="0 0 18 16" fill="none" xmlns="http://www.w3.org/2000/svg">
<g id="arrow.right.to.line.compact 1" clip-path="url(#clip0_177_7302)">
<g id="Group">
<path id="Vector" d="M17.5684 7.44141C17.5684 7.94922 17.2168 8.31055 16.709 8.31055H6.83596L4.74606 8.24219L7.95898 11.1719L10.1172 13.3594C10.2832 13.5254 10.3613 13.7598 10.3613 13.9941C10.3613 14.4824 9.99024 14.834 9.51172 14.834C9.26758 14.834 9.05274 14.7461 8.85742 14.5508L2.38286 8.0957C2.18746 7.91016 2.08006 7.67578 2.08006 7.44141C2.08006 7.19727 2.18746 6.97266 2.38286 6.77734L8.85742 0.322266C9.05274 0.126953 9.26758 0.0292969 9.51172 0.0292969C9.99024 0.0292969 10.3613 0.390625 10.3613 0.878906C10.3613 1.11328 10.2832 1.34766 10.1172 1.50391L7.95898 3.70117L4.75586 6.64062L6.83596 6.5625H16.709C17.2168 6.5625 17.5684 6.92383 17.5684 7.44141ZM2.10936 14.0332C2.10936 14.5312 1.74806 14.873 1.23046 14.873C0.72266 14.873 0.361359 14.5312 0.361359 14.0332V0.859375C0.361359 0.351562 0.72266 0 1.23046 0C1.74806 0 2.10936 0.351562 2.10936 0.859375V14.0332Z" fill="white"/>
</g>
</g>
<defs>
<clipPath id="clip0_177_7302">
<rect width="17.5684" height="15.2441" fill="white" transform="matrix(-1 0 0 1 17.5684 0)"/>
</clipPath>
</defs>
</svg>
