<svg width="25" height="30" viewBox="0 0 25 30" fill="none" xmlns="http://www.w3.org/2000/svg">
<g clip-path="url(#clip0_68_936)">
<path d="M3.57369 1.87152L8.78076 11.4316C7.14188 12.0373 5.691 13.0488 4.54192 14.3391L0.586285 7.06177L0.581006 7.05206L0.575302 7.04259C0.471204 6.86975 0.471048 6.69415 0.599963 6.50389L0.600091 6.50397L0.606803 6.49352L3.57369 1.87152ZM24.2058 7.0547L24.2057 7.05467L24.2022 7.06122L20.234 14.3395C19.0868 13.049 17.6425 12.0366 15.9949 11.4307L21.2015 1.87153L24.1683 6.49351L24.1681 6.4936L24.1751 6.50391C24.3046 6.69497 24.3062 6.87681 24.2058 7.0547ZM20.1586 21.5559C20.1586 25.957 16.6766 29.5 12.3811 29.5C8.09903 29.5 4.61655 25.9575 4.61655 21.5559C4.61655 17.1405 8.09954 13.5984 12.3811 13.5984C16.6761 13.5984 20.1586 17.141 20.1586 21.5559ZM18.4313 0.500005L15.0145 6.68088H9.76061L6.34385 0.500005H18.4313Z" stroke="white"/>
</g>
<defs>
<clipPath id="clip0_68_936">
<rect width="24.78" height="30" fill="white"/>
</clipPath>
</defs>
</svg>
