<svg width="18" height="16" viewBox="0 0 18 16" fill="none" xmlns="http://www.w3.org/2000/svg">
<g id="arrow.right.to.line.compact 1" clip-path="url(#clip0_177_7235)">
<g id="Group">
<path id="Vector" d="M0.429932 7.44141C0.429932 7.94922 0.781494 8.31055 1.28931 8.31055H11.1623L13.2522 8.24219L10.0393 11.1719L7.8811 13.3594C7.71509 13.5254 7.63696 13.7598 7.63696 13.9941C7.63696 14.4824 8.00805 14.834 8.48657 14.834C8.73071 14.834 8.94555 14.7461 9.14087 14.5508L15.6154 8.0957C15.8108 7.91016 15.9182 7.67578 15.9182 7.44141C15.9182 7.19727 15.8108 6.97266 15.6154 6.77734L9.14087 0.322266C8.94555 0.126953 8.73071 0.0292969 8.48657 0.0292969C8.00805 0.0292969 7.63696 0.390625 7.63696 0.878906C7.63696 1.11328 7.71509 1.34766 7.8811 1.50391L10.0393 3.70117L13.2424 6.64062L11.1623 6.5625H1.28931C0.781494 6.5625 0.429932 6.92383 0.429932 7.44141ZM15.8889 14.0332C15.8889 14.5312 16.2502 14.873 16.7678 14.873C17.2756 14.873 17.6369 14.5312 17.6369 14.0332V0.859375C17.6369 0.351562 17.2756 0 16.7678 0C16.2502 0 15.8889 0.351562 15.8889 0.859375V14.0332Z" fill="white" fill-opacity="0.85"/>
</g>
</g>
<defs>
<clipPath id="clip0_177_7235">
<rect width="17.5684" height="15.2441" fill="white" transform="translate(0.429932)"/>
</clipPath>
</defs>
</svg>
