<svg width="25" height="30" viewBox="0 0 25 30" fill="none" xmlns="http://www.w3.org/2000/svg">
<g clip-path="url(#clip0_68_940)">
<path d="M12.3811 30C16.9624 30 20.6586 26.2235 20.6586 21.5559C20.6586 16.8751 16.9624 13.0984 12.3811 13.0984C7.81281 13.0984 4.11655 16.8751 4.11655 21.5559C4.11655 26.2235 7.81281 30 12.3811 30ZM4.45495 15.226C5.73041 13.5772 7.48743 12.3272 9.50475 11.7155L3.60897 0.890965L0.186032 6.22342C-0.0482371 6.56917 -0.0612519 6.95481 0.146987 7.30056L4.45495 15.226ZM9.4657 7.18088H15.3094L19.279 5.19449e-06H5.49614L9.4657 7.18088ZM15.2704 11.7155C17.3007 12.3272 19.0447 13.5772 20.3202 15.226L24.6412 7.30056C24.8364 6.95481 24.8233 6.56917 24.589 6.22342L21.1662 0.890965L15.2704 11.7155Z" fill="#C0C0C0"/>
<path d="M13.904 23.38C14.0373 23.38 14.1427 23.4173 14.22 23.492C14.2973 23.564 14.336 23.66 14.336 23.78V24.5H10.24V24.1C10.24 24.0227 10.256 23.94 10.288 23.852C10.32 23.764 10.376 23.684 10.456 23.612L12.136 21.92C12.28 21.776 12.4053 21.6387 12.512 21.508C12.6187 21.3773 12.7067 21.2493 12.776 21.124C12.8453 20.996 12.8973 20.8693 12.932 20.744C12.9667 20.616 12.984 20.4813 12.984 20.34C12.984 20.108 12.928 19.9307 12.816 19.808C12.7067 19.6827 12.5387 19.62 12.312 19.62C12.128 19.62 11.972 19.6693 11.844 19.768C11.7187 19.864 11.632 19.984 11.584 20.128C11.528 20.2747 11.4547 20.372 11.364 20.42C11.2733 20.468 11.144 20.4787 10.976 20.452L10.32 20.336C10.3627 20.0453 10.444 19.792 10.564 19.576C10.6867 19.36 10.8373 19.18 11.016 19.036C11.1973 18.892 11.404 18.7853 11.636 18.716C11.868 18.644 12.1173 18.608 12.384 18.608C12.672 18.608 12.9307 18.6507 13.16 18.736C13.392 18.8187 13.5893 18.9347 13.752 19.084C13.9147 19.2333 14.0387 19.412 14.124 19.62C14.212 19.8253 14.256 20.052 14.256 20.3C14.256 20.5133 14.2253 20.7107 14.164 20.892C14.1053 21.0733 14.024 21.2467 13.92 21.412C13.816 21.5747 13.6947 21.7333 13.556 21.888C13.42 22.04 13.2747 22.1947 13.12 22.352L11.98 23.52C12.1267 23.4747 12.272 23.44 12.416 23.416C12.56 23.392 12.6933 23.38 12.816 23.38H13.904Z" fill="white"/>
</g>
<defs>
<clipPath id="clip0_68_940">
<rect width="24.78" height="30" fill="white"/>
</clipPath>
</defs>
</svg>
